<?xml version="1.0" encoding="utf-8"?>
<!-- Generator: Adobe Illustrator 17.1.0, SVG Export Plug-In . SVG Version: 6.00 Build 0)  -->
<!DOCTYPE svg PUBLIC "-//W3C//DTD SVG 1.1//EN" "http://www.w3.org/Graphics/SVG/1.1/DTD/svg11.dtd">
<svg version="1.1" id="Layer_1" xmlns="http://www.w3.org/2000/svg" xmlns:xlink="http://www.w3.org/1999/xlink" x="0px" y="0px"
	 viewBox="0 0 100 70.191" enable-background="new 0 0 100 70.191" xml:space="preserve">
<g>
	<path fill="#E0CD9A" d="M50.897,27.413"/>
</g>
<g>
	<g>
		<path fill="#E0CD9A" d="M50.089,15.665c-2.163,0-3.5-1.753-3.5-3.916V3.916c0-2.163,1.337-3.916,3.5-3.916
			c2.163,0,3.5,1.753,3.5,3.916v7.832C53.589,13.911,52.252,15.665,50.089,15.665z"/>
	</g>
	<g>
		<path fill="#E0CD9A" d="M31.432,20.899c-1.307,0-2.585-0.654-3.328-1.846l-3.802-6.103c-1.143-1.836-0.583-4.251,1.253-5.395
			c1.836-1.144,4.251-0.583,5.395,1.253l3.802,6.103c1.143,1.836,0.583,4.251-1.253,5.395
			C32.855,20.708,32.139,20.899,31.432,20.899z"/>
	</g>
	<g>
		<path fill="#E0CD9A" d="M18.002,34.928c-0.66,0-1.33-0.167-1.944-0.519l-6.239-3.575c-1.877-1.075-2.526-3.468-1.451-5.345
			c1.075-1.876,3.469-2.526,5.345-1.45l6.239,3.575c1.877,1.075,2.526,3.468,1.451,5.345C20.679,34.221,19.359,34.928,18.002,34.928
			z"/>
	</g>
	<g>
		<path fill="#E0CD9A" d="M12.933,54c-0.016,0-0.032,0-0.048,0L3.87,53.905C1.707,53.879-0.025,52.111,0,49.948
			c0.026-2.163,1.809-3.905,3.963-3.866l9.016,0.109c2.163,0.026,3.895,1.788,3.869,3.951C16.822,52.289,15.074,54,12.933,54z"/>
	</g>
	<g>
		<path fill="#E0CD9A" d="M87.067,54c-2.141,0-3.889-1.71-3.915-3.857c-0.026-2.163,1.707-3.973,3.869-3.999L96.037,46
			c0.016,0,0.032,0,0.048,0c2.141,0,3.889,1.765,3.915,3.912c0.026,2.163-1.707,3.946-3.869,3.972L87.115,54
			C87.099,54,87.083,54,87.067,54z"/>
	</g>
	<g>
		<path fill="#E0CD9A" d="M81.998,34.928c-1.358,0-2.678-0.707-3.401-1.97c-1.075-1.877-0.426-4.27,1.451-5.345l6.239-3.575
			c1.876-1.075,4.27-0.426,5.345,1.45c1.075,1.877,0.426,4.27-1.451,5.345l-6.239,3.575C83.328,34.761,82.659,34.928,81.998,34.928z
			"/>
	</g>
	<g>
		<path fill="#E0CD9A" d="M68.568,20.899c-0.707,0-1.423-0.191-2.067-0.593c-1.836-1.143-2.397-3.559-1.253-5.395l3.802-6.103
			c1.144-1.836,3.559-2.397,5.395-1.253c1.836,1.143,2.397,3.559,1.253,5.395l-3.802,6.103
			C71.153,20.245,69.875,20.899,68.568,20.899z"/>
	</g>
</g>
<path fill="#E0CD9A" d="M50,20.867c-14.982,0-27.638,13.134-27.638,28.681c0,2.163,1.753,3.916,3.916,3.916
	c2.163,0,3.916-1.753,3.916-3.916c0-5.32,2.144-10.644,5.882-14.609C39.869,30.916,44.814,28.7,50,28.7
	c5.186,0,10.131,2.216,13.925,6.24c3.738,3.965,5.882,9.289,5.882,14.609c0,2.163,1.753,3.916,3.916,3.916
	c2.163,0,3.916-1.753,3.916-3.916C77.638,34.002,64.982,20.867,50,20.867z"/>
<path fill="#CFA22B" d="M64.288,51.756L52.564,40.029c-0.718-0.718-1.67-1.049-2.611-1.012c-0.033-0.001-0.065-0.009-0.098-0.009
	c-0.014,0-0.028-0.004-0.042-0.004c-0.002,0-0.004,0.001-0.006,0.001c-0.228,0-0.456,0.024-0.68,0.069
	c-0.102,0.02-0.197,0.059-0.295,0.088c-0.12,0.035-0.242,0.063-0.358,0.111c-0.115,0.048-0.219,0.113-0.327,0.172
	c-0.092,0.05-0.187,0.091-0.276,0.15c-0.192,0.128-0.371,0.274-0.534,0.436L35.614,51.756c-1.367,1.367-1.367,3.583,0,4.95
	c0.684,0.683,1.579,1.025,2.475,1.025c0.896,0,1.792-0.342,2.475-1.025l5.749-5.75v15.736c0,1.933,1.567,3.5,3.5,3.5
	s3.5-1.567,3.5-3.5V50.679l6.025,6.026c0.684,0.684,1.579,1.025,2.475,1.025c0.896,0,1.791-0.342,2.475-1.025
	C65.655,55.339,65.655,53.123,64.288,51.756z"/>
</svg>
